<svg id="Layer_1" data-name="Layer 1" xmlns="http://www.w3.org/2000/svg" viewBox="0 0 3163.76 1033.41"><defs><style>.cls-1,.cls-3{fill:#221e22;}.cls-1{stroke:#221e22;stroke-miterlimit:10;}.cls-2{fill:#662d91;}</style></defs><path class="cls-1" d="M449.61,322.54l-1.91,73.6q-7.65-19.11-30.59-38.72t-56.39-33c-2.19-.88-4.47-1.51-6.7-2.3v85a122.56,122.56,0,0,1,21,10q29.63,18.18,46.85,50.67t17.2,73.59v6.69q0,61.2-37.28,98.94t-91.76,37.74q-62.15,0-95.11-39.66T182,541.42q0-63.07,33.45-102.75a106.36,106.36,0,0,1,51.62-33.73V312c-34.83,2.71-65.78,11.88-92.72,27.72q-48.75,28.69-75,80.3T73,540.46q0,69.79,30.11,121.87t80.29,80.3q50.18,28.18,109.44,28.19,53.52,0,96.54-26.28t59.27-60.7l1.91,77.43h97.49V322.54Z"/><circle class="cls-2" cx="310.54" cy="244.18" r="43.49"/><circle class="cls-2" cx="206.02" cy="151.2" r="30.35"/><circle class="cls-2" cx="310.54" cy="58.72" r="31.31"/><path class="cls-1" d="M695.26,58.72H797.53V761.27H695.26Z"/><path class="cls-1" d="M1530.19,758.88q-49.25-11.94-70.26-28.19l34.41-81.26q57.36,40.16,131,40.15t73.6-43q0-19.11-15.28-29.64t-54.49-24.85L1592.8,578.7q-57.36-22.94-90.81-55t-33.45-84.59q0-60.22,47.31-94.15t126.65-33.93a345.11,345.11,0,0,1,77,8.59q37.74,8.59,57.83,22L1740,423.85q-12.43-12.41-39.67-21.5t-60.7-9.08q-67.87,0-67.87,41.09,0,23,18.17,34.89t59.26,26.29q3.81,1,29.64,10.51,61.14,23.91,90.8,54.49t29.63,78.38q0,65-49.22,98.45t-124.75,33.45Q1579.42,770.82,1530.19,758.88Z"/><path class="cls-1" d="M1990.43,740.24q-52.59-30.57-81.25-83.16t-28.67-116.62q0-63.08,28.19-115.65t80.78-83.16q52.53-30.58,121.38-30.58t120.92,30.58q52.08,30.62,80.28,83.16t28.21,115.65q0,64.06-28.68,116.62a213.24,213.24,0,0,1-80.77,83.16q-52.11,30.6-120,30.58T1990.43,740.24Zm210.76-94.63q32-41.08,32-103.24T2198.8,437.71q-34.41-42.51-90.8-42.53-54.48,0-87.46,42.05t-33,105.14q0,61.2,35.37,102.76t90.8,41.58Q2169.15,686.71,2201.19,645.61Z"/><path class="cls-1" d="M2491.28,404.74h-70.74v-82.2h70.74V227.91q0-86,41.57-133.35t121.87-47.31q32.49,0,73.6,18.16l-20.06,97.49q-6.71-7.62-20.56-14.81a64.6,64.6,0,0,0-30.11-7.17q-64.05,0-65,83.16v98.46h103.24v82.2H2592.59V761.27H2491.28Z"/><path class="cls-1" d="M2834.42,406.65H2757V322.54h77.42V143.79l104.19-22.94V322.54h101.32v84.11H2938.61V761.27H2834.42Z"/><rect class="cls-1" x="929.76" y="491.73" width="434.35" height="294.91" rx="7.73"/><rect class="cls-1" x="931.33" y="491.73" width="432.78" height="147.45"/><rect class="cls-1" x="992.41" y="312.01" width="75.91" height="179.72"/><rect class="cls-1" x="1226.17" y="312.01" width="75.91" height="179.72"/><path class="cls-3" d="M1147.72,770.82c0,85.36-15.87,165.54-43.74,235.18"/><path class="cls-3" d="M1127.19,1015.29l-46.42-18.57c27.44-68.58,42-146.69,42-225.9h50C1172.72,856.33,1157,940.87,1127.19,1015.29Z"/><path class="cls-2" d="M310.54,647.5c47.16,0,87.25-31.25,102.7-75h.91c-109.21-125.52-31.18,0-207.23,0h.91C223.28,616.25,263.37,647.5,310.54,647.5Z"/></svg>