<svg id="Layer_1" data-name="Layer 1" xmlns="http://www.w3.org/2000/svg" viewBox="0 0 518.02 172.39"><defs><style>.cls-1,.cls-3{fill:#fff;stroke:#fff;stroke-miterlimit:10;}.cls-2{fill:#662d91;}.cls-3{stroke-width:10px;}</style></defs><path class="cls-1" d="M1363.12,2014.16l-.34,12.83a18.21,18.21,0,0,0-5.33-6.75,35,35,0,0,0-9.82-5.74c-.39-.16-.78-.27-1.17-.4v14.8a21.53,21.53,0,0,1,3.66,1.75,22.42,22.42,0,0,1,8.17,8.83,27,27,0,0,1,3,12.83v1.16q0,10.67-6.5,17.24a21.58,21.58,0,0,1-16,6.58q-10.83,0-16.58-6.91t-5.74-18.07q0-11,5.83-17.91a18.62,18.62,0,0,1,9-5.88v-16.19a37,37,0,0,0-16.15,4.83,33.47,33.47,0,0,0-13.08,14,45.59,45.59,0,0,0-4.58,21q0,12.17,5.25,21.24a36.78,36.78,0,0,0,14,14,38.31,38.31,0,0,0,19.07,4.91,31.53,31.53,0,0,0,16.82-4.58q7.5-4.57,10.33-10.58l.33,13.5h17v-76.46Z" transform="translate(-1296.99 -1962.73)"/><circle class="cls-2" cx="41.89" cy="37.78" r="7.58"/><circle class="cls-2" cx="23.68" cy="21.57" r="5.29"/><circle class="cls-2" cx="41.89" cy="5.46" r="5.46"/><path class="cls-1" d="M1405.92,1968.19h17.83v122.43h-17.83Z" transform="translate(-1296.99 -1962.73)"/><path class="cls-1" d="M1551.42,2090.2q-8.58-2.09-12.24-4.91l6-14.16a38.87,38.87,0,0,0,22.82,7q12.83,0,12.83-7.5a5.91,5.91,0,0,0-2.66-5.16,47.32,47.32,0,0,0-9.5-4.34l-6.33-2.33q-10-4-15.82-9.57t-5.83-14.75q0-10.49,8.24-16.4t22.07-5.92a60.19,60.19,0,0,1,13.41,1.5,30.9,30.9,0,0,1,10.08,3.83l-6.5,14.33a17.78,17.78,0,0,0-6.91-3.75,33.44,33.44,0,0,0-10.58-1.58q-11.82,0-11.82,7.16a6.82,6.82,0,0,0,3.16,6.08,49.66,49.66,0,0,0,10.33,4.58c.44.11,2.16.73,5.16,1.83q10.67,4.17,15.82,9.5t5.17,13.66q0,11.32-8.58,17.15t-21.74,5.83A70.07,70.07,0,0,1,1551.42,2090.2Z" transform="translate(-1296.99 -1962.73)"/><path class="cls-1" d="M1631.62,2087a37,37,0,0,1-14.16-14.49,43.83,43.83,0,0,1-.08-40.47,36.48,36.48,0,0,1,14.08-14.5,41.28,41.28,0,0,1,21.15-5.33,40.86,40.86,0,0,1,21.07,5.33,36.59,36.59,0,0,1,14,14.5,43.76,43.76,0,0,1-.08,40.47,37.13,37.13,0,0,1-14.08,14.49,40.44,40.44,0,0,1-20.9,5.33A40.9,40.9,0,0,1,1631.62,2087Zm36.73-16.49q5.58-7.15,5.58-18t-6-18.24a19.37,19.37,0,0,0-15.82-7.41,18.42,18.42,0,0,0-15.24,7.33q-5.74,7.33-5.75,18.32,0,10.67,6.17,17.91a19.81,19.81,0,0,0,15.82,7.24Q1662.77,2077.62,1668.35,2070.46Z" transform="translate(-1296.99 -1962.73)"/><path class="cls-1" d="M1718.9,2028.49h-12.33v-14.33h12.33v-16.49q0-15,7.25-23.23t21.23-8.25a32.31,32.31,0,0,1,12.83,3.17l-3.5,17a12.3,12.3,0,0,0-3.58-2.59,11.28,11.28,0,0,0-5.25-1.24q-11.16,0-11.32,14.49v17.15h18v14.33h-18v62.13H1718.9Z" transform="translate(-1296.99 -1962.73)"/><path class="cls-1" d="M1778.7,2028.82h-13.49v-14.66h13.49V1983l18.15-4v35.14h17.66v14.66h-17.66v61.8H1778.7Z" transform="translate(-1296.99 -1962.73)"/><rect class="cls-1" x="149.8" y="80.91" width="75.69" height="51.39" rx="7.73"/><rect class="cls-1" x="150.07" y="80.91" width="75.42" height="25.7"/><rect class="cls-1" x="160.72" y="49.59" width="13.23" height="31.32"/><rect class="cls-1" x="201.45" y="49.59" width="13.23" height="31.32"/><path class="cls-3" d="M1484.77,2092.28a110.64,110.64,0,0,1-7.62,41" transform="translate(-1296.99 -1962.73)"/><path class="cls-2" d="M1338.88,2070.79a19.14,19.14,0,0,0,17.9-13.07h.16c-19-21.87-5.44,0-36.11,0h.15A19.15,19.15,0,0,0,1338.88,2070.79Z" transform="translate(-1296.99 -1962.73)"/></svg>